<?xml version="1.0" encoding="iso-8859-1"?>
<!-- Generator: Adobe Illustrator 19.0.0, SVG Export Plug-In . SVG Version: 6.00 Build 0)  -->
<svg version="1.1" id="Capa_1" xmlns="http://www.w3.org/2000/svg" xmlns:xlink="http://www.w3.org/1999/xlink" x="0px" y="0px"
	 viewBox="0 0 365.714 365.714" style="enable-background:new 0 0 365.714 365.714;" xml:space="preserve">
<g>
	<g>
		<path d="M355.265,86.204c5.771,0,10.449-4.678,10.449-10.449V15.674C365.172,9.737,360.182,5.2,354.22,5.225H11.494
			C5.533,5.2,0.542,9.737,0,15.674v60.082c0,5.771,4.678,10.449,10.449,10.449s10.449-4.678,10.449-10.449V26.123h151.51V208.98
			H11.494c-5.771,0-10.449,4.678-10.449,10.449s4.678,10.449,10.449,10.449h160.914v109.714h-66.873
			c-5.771,0-10.449,4.678-10.449,10.449s4.678,10.449,10.449,10.449H260.18c5.771,0,10.449-4.678,10.449-10.449
			s-4.678-10.449-10.449-10.449h-66.873V229.878H354.22c5.771,0,10.449-4.678,10.449-10.449s-4.678-10.449-10.449-10.449H193.306
			V26.123h151.51v49.633C344.816,81.526,349.494,86.204,355.265,86.204z"/>
	</g>
</g>
<g>
</g>
<g>
</g>
<g>
</g>
<g>
</g>
<g>
</g>
<g>
</g>
<g>
</g>
<g>
</g>
<g>
</g>
<g>
</g>
<g>
</g>
<g>
</g>
<g>
</g>
<g>
</g>
<g>
</g>
</svg>
