<?xml version="1.0" encoding="utf-8"?>
<!-- Generator: Adobe Illustrator 23.0.3, SVG Export Plug-In . SVG Version: 6.00 Build 0)  -->
<svg version="1.1" id="Layer_1" xmlns="http://www.w3.org/2000/svg" xmlns:xlink="http://www.w3.org/1999/xlink" x="0px" y="0px"
	 viewBox="0 0 24 24" style="enable-background:new 0 0 24 24;" xml:space="preserve">
<style type="text/css">
	.st0{fill:url(#SVGID_1_);}
	.st1{fill:url(#SVGID_2_);}
	.st2{fill:url(#SVGID_3_);}
	.st3{fill:url(#SVGID_4_);}
	.st4{fill:url(#SVGID_5_);}
	.st5{fill:url(#SVGID_6_);}
	.st6{fill:url(#SVGID_7_);}
	.st7{fill:url(#SVGID_8_);}
	.st8{fill:url(#SVGID_9_);}
	.st9{fill:url(#SVGID_10_);}
	.st10{fill:url(#SVGID_11_);}
	.st11{fill:url(#SVGID_12_);}
	.st12{fill:url(#SVGID_13_);}
	.st13{fill:url(#SVGID_14_);}
	.st14{fill:url(#SVGID_15_);}
	.st15{fill:url(#SVGID_16_);}
	.st16{fill:url(#SVGID_17_);}
	.st17{fill:url(#SVGID_18_);}
	.st18{fill:url(#SVGID_19_);}
	.st19{fill:url(#SVGID_20_);}
	.st20{fill:url(#SVGID_21_);}
	.st21{fill:url(#SVGID_22_);}
	.st22{fill:url(#SVGID_23_);}
	.st23{fill:url(#SVGID_24_);}
	.st24{fill:url(#SVGID_25_);}
	.st25{fill:url(#SVGID_26_);}
	.st26{fill:url(#SVGID_27_);}
	.st27{fill:url(#SVGID_28_);}
	.st28{fill:url(#SVGID_29_);}
	.st29{fill:url(#SVGID_30_);}
	.st30{fill:url(#SVGID_31_);}
	.st31{fill:url(#SVGID_32_);}
</style>
<linearGradient id="SVGID_1_" gradientUnits="userSpaceOnUse" x1="3.081" y1="13.2456" x2="20.8014" y2="13.2456">
	<stop  offset="0" style="stop-color:#1245C6"/>
	<stop  offset="1" style="stop-color:#9909B7"/>
</linearGradient>
<path class="st0" d="M9.8,11.6l2.1-3.1h1.4V6.6h-3L8.8,9.2L8.5,9.7C8.4,9.8,8.4,9.9,8.3,9.9h0c0-0.1-0.1-0.2-0.1-0.2
	C8,9.4,7.9,9.2,7.9,9.2L6.3,6.6H3.1v1.9h1.6l2.1,3.1L4.6,15H3.1V17h3l1.8-2.9c0.1-0.2,0.2-0.4,0.3-0.5l0.1-0.2h0
	c0,0.1,0.1,0.2,0.1,0.2L8.7,14l1.8,2.9h2.9V15h-1.3L9.8,11.6z M19.3,17.5v0.9h-2.7c0-0.3,0.2-0.6,0.5-0.8c0.3-0.3,0.6-0.5,1-0.7
	c0.4-0.2,0.8-0.5,1.2-0.7c0.4-0.3,0.7-0.6,1-1c0.3-0.4,0.4-0.9,0.4-1.4c0-0.8-0.3-1.4-0.8-1.8c-0.5-0.5-1.2-0.7-2.1-0.7
	c-0.8,0-1.6,0.3-2.2,0.8c-0.3,0.2-0.5,0.5-0.7,0.8l1.2,1.1c0.2-0.2,0.3-0.4,0.4-0.4c0.4-0.3,0.7-0.5,1.1-0.5c0.3,0,0.6,0.1,0.8,0.3
	c0.2,0.2,0.3,0.4,0.3,0.7c0,0.3-0.1,0.5-0.3,0.7c-0.2,0.2-0.5,0.4-0.8,0.6c-0.3,0.2-0.6,0.4-1,0.6c-0.3,0.2-0.7,0.5-1,0.8
	c-0.3,0.3-0.6,0.6-0.8,1c-0.2,0.4-0.3,0.9-0.3,1.4c0,0,0,0.2,0,0.5l0,0.3h5.9v-2.4H19.3L19.3,17.5z"/>
</svg>
