<?xml version="1.0" encoding="utf-8"?>
<!-- Generator: Adobe Illustrator 23.0.3, SVG Export Plug-In . SVG Version: 6.00 Build 0)  -->
<svg version="1.1" id="Layer_1" xmlns="http://www.w3.org/2000/svg" xmlns:xlink="http://www.w3.org/1999/xlink" x="0px" y="0px"
	 viewBox="0 0 24 24" style="enable-background:new 0 0 24 24;" xml:space="preserve">
<style type="text/css">
	.st0{fill:url(#SVGID_1_);}
	.st1{fill:url(#SVGID_2_);}
	.st2{fill:url(#SVGID_3_);}
	.st3{fill:url(#SVGID_4_);}
	.st4{fill:url(#SVGID_5_);}
	.st5{fill:url(#SVGID_6_);}
	.st6{fill:url(#SVGID_7_);}
	.st7{fill:url(#SVGID_8_);}
	.st8{fill:url(#SVGID_9_);}
	.st9{fill:url(#SVGID_10_);}
	.st10{fill:url(#SVGID_11_);}
	.st11{fill:url(#SVGID_12_);}
	.st12{fill:url(#SVGID_13_);}
	.st13{fill:url(#SVGID_14_);}
	.st14{fill:url(#SVGID_15_);}
	.st15{fill:url(#SVGID_16_);}
	.st16{fill:url(#SVGID_17_);}
	.st17{fill:url(#SVGID_18_);}
	.st18{fill:url(#SVGID_19_);}
	.st19{fill:url(#SVGID_20_);}
</style>
<linearGradient id="SVGID_1_" gradientUnits="userSpaceOnUse" x1="4.443" y1="11.2154" x2="21.3514" y2="11.2154">
	<stop  offset="0" style="stop-color:#1245C6"/>
	<stop  offset="1" style="stop-color:#9909B7"/>
</linearGradient>
<path class="st0" d="M10.8,13.8l2-3h1.4V9h-2.8l-1.5,2.5l-0.3,0.5c-0.1,0.1-0.1,0.2-0.1,0.2h0c0-0.1-0.1-0.2-0.1-0.2
	c-0.2-0.3-0.2-0.4-0.3-0.5L7.5,9H4.5v1.9H6l2,3L5.9,17H4.4v1.8h2.9L9,16.1c0.1-0.2,0.2-0.3,0.3-0.5l0.1-0.2h0c0,0.1,0.1,0.2,0.1,0.2
	l0.3,0.5l1.8,2.8h2.7V17h-1.2L10.8,13.8z M20,9.5v0.9h-2.6c0-0.2,0.1-0.5,0.3-0.7c0.2-0.2,0.4-0.4,0.7-0.6C18.7,9,19,8.8,19.4,8.6
	c0.3-0.2,0.6-0.4,0.9-0.6c0.3-0.2,0.5-0.5,0.7-0.8c0.2-0.3,0.3-0.7,0.3-1.1c0-0.7-0.3-1.3-0.8-1.8c-0.5-0.4-1.2-0.7-2-0.7
	c-0.8,0-1.5,0.2-2.1,0.7c-0.3,0.2-0.5,0.5-0.7,0.7l1.2,1c0.2-0.2,0.3-0.3,0.4-0.4c0.3-0.3,0.7-0.4,1.1-0.4c0.3,0,0.6,0.1,0.8,0.3
	c0.2,0.2,0.3,0.4,0.3,0.7c0,0.2-0.1,0.5-0.3,0.7c-0.2,0.2-0.4,0.4-0.7,0.6c-0.3,0.2-0.6,0.4-0.9,0.6c-0.3,0.2-0.6,0.5-0.9,0.7
	c-0.3,0.2-0.5,0.6-0.7,1c-0.2,0.4-0.3,0.8-0.3,1.3c0,0.1,0,0.3,0,0.5l0,0.3h5.7V9.5L20,9.5L20,9.5z"/>
</svg>
